# xmcd
#
# Track frame offsets:
#	150
#	15243
#	30835
#	47512
#	66032
#	86712
#
# Disc length: 1376 seconds
#
# Revision: 0
# Processed by: cddbd v1.5.2PL0 Copyright (c) Steve Scherf et al.
# Submitted via: EasyCDDAExtractor 12.0.0.1
#
DISCID=36055e06
DTITLE=린(Lyn) - 6_New Celebration 6 ½ (KT Music-2009)
DYEAR=2009
DGENRE=ballad
TTITLE0=New Celebration (Feat. 도끼)
TTITLE1=누나의 노래 (Feat. E.Via)
TTITLE2=실화
TTITLE3=Love U, I Love U
TTITLE4=통화연결음
TTITLE5=실화 (New Edit Inst.)
EXTD=
EXTT0=
EXTT1=
EXTT2=
EXTT3=
EXTT4=
EXTT5=
PLAYORDER=
